<svg width="4000" height="4000" xmlns="http://www.w3.org/2000/svg" preserveAspectRatio="xMidYMid meet">
 <metadata>Created by potrace 1.15, written by Peter Selinger 2001-2017</metadata>

 <g>
  <title>background</title>
  <rect fill="#ffffff" id="canvas_background" height="4002" width="4002" y="-1" x="-1"/>
 </g>
 <g>
  <title>Layer 1</title>
  <g id="svg_1" fill="#000000" transform="translate(0.000000,4000.000000) scale(0.100000,-0.100000)">
   <path id="svg_2" d="m21997,39003c-4,-3 -7,-228 -7,-500l0,-493l-3997,-2l-3998,-3l-3,-3497l-2,-3498l-490,0l-490,0l-2,498l-3,497l-3005,0l-3005,0l0,-3005l0,-3005l3005,0l3005,0l3,498l2,497l490,0l490,0l0,-3490l0,-3490l-3290,0l-3290,0l-2,498l-3,497l-3005,0l-3005,0l0,-3005l0,-3005l3005,0l3005,0l3,498l2,497l1790,0l1790,0l0,-4490l0,-4490l-497,-2l-498,-3l0,-3005l0,-3005l3005,0l3005,0l0,3005l0,3005l-497,3l-498,2l0,4490l0,4490l2490,0l2490,0l2,-497l3,-498l3005,0l3005,0l3,498l2,497l3490,0l3490,0l2,-497l3,-498l3005,0l3005,0l0,3005l0,3005l-497,3l-498,2l-2,8498l-3,8497l-4997,3l-4998,2l-2,498l-3,497l-3001,3c-1650,1 -3004,-1 -3007,-5zm5995,-510l3,-498l4997,-3l4998,-2l2,-8498l3,-8497l498,-3l497,-2l0,-2990l0,-2990l-2990,0l-2990,0l-2,498l-3,497l-3505,0l-3505,0l-3,-497l-2,-498l-2990,0l-2990,0l-2,497l-3,498l-2505,0l-2505,0l0,-4505l0,-4505l498,-3l497,-2l0,-2990l0,-2990l-2990,0l-2990,0l0,2990l0,2990l498,2l497,3l0,4505l0,4505l-1805,0l-1805,0l-3,-497l-2,-498l-2990,0l-2990,0l0,2990l0,2990l2990,0l2990,0l2,-497l3,-498l3305,0l3305,0l0,3505l0,3505l-505,0l-505,0l-3,-497l-2,-498l-2990,0l-2990,0l0,2990l0,2990l2990,0l2990,0l2,-497l3,-498l505,0l505,0l3,3497l2,3498l3998,2l3997,3l3,498l2,497l2990,0l2990,0l2,-497z"/>
   <path id="svg_3" d="m17995,33998c-3,-7 -4,-3161 -3,-7008l3,-6995l1005,0l1005,0l3,498l2,497l2990,0l2990,0l2,-497l3,-498l3505,0l3505,0l3,497l2,498l498,2l497,3l0,6505l0,6505l-3005,0l-3005,0l-3,-497l-2,-498l-2990,0l-2990,0l-2,498l-3,497l-2003,3c-1597,2 -2004,0 -2007,-10zm3997,-505l3,-498l3005,0l3005,0l3,498l2,497l2990,0l2990,0l0,-6490l0,-6490l-497,-2l-498,-3l-3,-497l-2,-498l-3490,0l-3490,0l-2,498l-3,497l-3005,0l-3005,0l-3,-497l-2,-498l-990,0l-990,0l0,6990l0,6990l1990,0l1990,0l2,-497z"/>
  </g>
 </g>
</svg>